<?xml version="1.0" standalone="no"?>
<!DOCTYPE svg PUBLIC "-//W3C//DTD SVG 20010904//EN"
 "http://www.w3.org/TR/2001/REC-SVG-20010904/DTD/svg10.dtd">
<svg version="1.0" xmlns="http://www.w3.org/2000/svg"
 width="700.000000pt" height="700.000000pt" viewBox="0 0 700.000000 700.000000"
 preserveAspectRatio="xMidYMid meet">
<metadata>
Created by potrace 1.11, written by Peter Selinger 2001-2013
</metadata>
<g transform="translate(0.000000,700.000000) scale(0.100000,-0.100000)"
fill="#000000" stroke="none">
<path d="M3397 6984 c-1 -1 -56 -4 -122 -8 -66 -3 -129 -8 -140 -10 -11 -2
-49 -7 -85 -11 -36 -4 -74 -9 -85 -11 -22 -5 -124 -22 -170 -30 -152 -26 -520
-144 -683 -219 -29 -14 -55 -25 -57 -25 -7 0 -173 -83 -230 -115 -553 -308
-1000 -741 -1327 -1285 -63 -106 -198 -367 -198 -384 0 -3 -11 -29 -23 -58
-72 -162 -179 -507 -201 -653 -10 -65 -16 -98 -21 -125 -10 -52 -16 -96 -20
-130 -2 -19 -7 -69 -12 -110 -16 -145 -8 -654 11 -755 2 -11 7 -42 10 -70 4
-27 11 -72 16 -100 5 -27 12 -61 14 -75 72 -412 281 -914 535 -1285 142 -207
263 -351 449 -535 376 -370 820 -646 1317 -817 72 -24 250 -77 295 -86 14 -3
57 -13 95 -21 39 -9 85 -19 104 -22 18 -3 43 -8 55 -10 11 -2 39 -7 61 -9 22
-3 65 -10 95 -15 61 -10 816 -7 894 4 43 6 313 59 356 70 8 2 29 7 45 11 56
13 230 67 300 92 202 75 216 80 383 164 414 206 759 469 1055 802 34 38 67 75
72 81 6 6 47 58 92 116 397 517 641 1124 710 1770 10 94 11 632 1 722 -28 245
-86 520 -156 733 -186 564 -520 1084 -953 1480 -157 144 -271 235 -429 339
-63 42 -120 81 -127 86 -7 6 -14 10 -17 10 -3 0 -28 14 -57 31 -61 35 -244
129 -309 157 -25 11 -71 32 -102 46 -32 13 -58 22 -58 19 0 -3 -6 -1 -12 5
-22 17 -346 121 -426 137 -9 1 -35 8 -57 13 -22 6 -56 13 -75 16 -19 3 -46 8
-60 11 -45 9 -168 28 -265 40 -102 12 -478 27 -488 19z"/>
</g>
</svg>
